<svg width="30" height="30" viewBox="0 0 30 30" fill="none" xmlns="http://www.w3.org/2000/svg">
<path d="M25.0501 8.52498L17.85 3.48748C15.8875 2.11248 12.875 2.18748 10.9875 3.64998L4.72505 8.53748C3.47505 9.51248 2.48755 11.5125 2.48755 13.0875V21.7125C2.48755 24.9 5.07505 27.5 8.26255 27.5H21.7375C24.925 27.5 27.5125 24.9125 27.5125 21.725V13.25C27.5125 11.5625 26.4251 9.48748 25.0501 8.52498ZM15.9375 22.5C15.9375 23.0125 15.5125 23.4375 15 23.4375C14.4875 23.4375 14.0625 23.0125 14.0625 22.5V18.75C14.0625 18.2375 14.4875 17.8125 15 17.8125C15.5125 17.8125 15.9375 18.2375 15.9375 18.75V22.5Z" fill="#3870FF"/>
</svg>
