<svg width="30" height="30" viewBox="0 0 30 30" fill="none" xmlns="http://www.w3.org/2000/svg">
<path d="M25.7751 10.5625C24.4626 4.7875 19.4251 2.1875 15.0001 2.1875C15.0001 2.1875 15.0001 2.1875 14.9876 2.1875C10.5751 2.1875 5.52512 4.775 4.21262 10.55C2.75012 17 6.70012 22.4625 10.2751 25.9C11.6001 27.175 13.3001 27.8125 15.0001 27.8125C16.7001 27.8125 18.4001 27.175 19.7126 25.9C23.2876 22.4625 27.2376 17.0125 25.7751 10.5625ZM15.0001 16.825C12.8251 16.825 11.0626 15.0625 11.0626 12.8875C11.0626 10.7125 12.8251 8.95 15.0001 8.95C17.1751 8.95 18.9376 10.7125 18.9376 12.8875C18.9376 15.0625 17.1751 16.825 15.0001 16.825Z" fill="#3870FF"/>
</svg>
