<svg width="30" height="30" viewBox="0 0 30 30" fill="none" xmlns="http://www.w3.org/2000/svg">
<path d="M15.2 13.5875C15.075 13.575 14.925 13.575 14.7875 13.5875C11.8125 13.4875 9.44995 11.05 9.44995 8.05C9.44995 4.9875 11.925 2.5 15 2.5C18.0625 2.5 20.55 4.9875 20.55 8.05C20.5375 11.05 18.175 13.4875 15.2 13.5875Z" stroke="#292D32" stroke-width="1.5" stroke-linecap="round" stroke-linejoin="round"/>
<path d="M8.9499 18.2C5.9249 20.225 5.9249 23.525 8.9499 25.5375C12.3874 27.8375 18.0249 27.8375 21.4624 25.5375C24.4874 23.5125 24.4874 20.2125 21.4624 18.2C18.0374 15.9125 12.3999 15.9125 8.9499 18.2Z" stroke="#292D32" stroke-width="1.5" stroke-linecap="round" stroke-linejoin="round"/>
</svg>
