<svg width="24" height="24" viewBox="0 0 24 24" fill="none" xmlns="http://www.w3.org/2000/svg">
<g clip-path="url(#clip0_73_2339)">
<path d="M2.00002 4C2.00002 3.448 2.45502 3 2.99202 3H21.008C21.556 3 22 3.445 22 4V18C22 18.552 21.545 19 21.008 19H2.99202C2.86115 18.9997 2.73161 18.9736 2.61085 18.9232C2.4901 18.8727 2.38049 18.7989 2.28832 18.706C2.19615 18.6131 2.12324 18.5029 2.07376 18.3818C2.02429 18.2606 1.99923 18.1309 2.00002 18V4ZM4.00002 5V17H20V5H4.00002ZM5.00002 20H19V22H5.00002V20Z" fill="black"/>
</g>
<defs>
<clipPath id="clip0_73_2339">
<rect width="24" height="24" fill="white"/>
</clipPath>
</defs>
</svg>
